<svg width="12" height="13" viewBox="0 0 12 13" fill="none" xmlns="http://www.w3.org/2000/svg">
<path d="M12 1.11941C12 0.855204 11.8947 0.601824 11.7072 0.415006C11.5198 0.228187 11.2656 0.123234 11.0005 0.123234L3.00435 0.0734253C2.73926 0.0734253 2.48503 0.178379 2.29758 0.365197C2.11014 0.552016 2.00483 0.805395 2.00483 1.0696C2.00483 1.3338 2.11014 1.58718 2.29758 1.774C2.48503 1.96081 2.73926 2.06577 3.00435 2.06577H8.56166L0.295655 10.324C0.201972 10.4166 0.127614 10.5268 0.07687 10.6482C0.0261259 10.7696 0 10.8998 0 11.0313C0 11.1628 0.0261259 11.293 0.07687 11.4144C0.127614 11.5358 0.201972 11.646 0.295655 11.7386C0.388574 11.832 0.499121 11.9061 0.620921 11.9566C0.742722 12.0072 0.873364 12.0333 1.00531 12.0333C1.13726 12.0333 1.2679 12.0072 1.3897 11.9566C1.5115 11.9061 1.62205 11.832 1.71497 11.7386L10.001 3.48033V9.03897C10.001 9.30317 10.1063 9.55655 10.2937 9.74337C10.4812 9.93018 10.7354 10.0351 11.0005 10.0351C11.2656 10.0351 11.5198 9.93018 11.7072 9.74337C11.8947 9.55655 12 9.30317 12 9.03897V1.11941Z" fill="#2BFDA5"/>
</svg>
